<svg height="512" viewBox="0 0 64 64" width="512" xmlns="http://www.w3.org/2000/svg"><g id="Bookshelves-library-study-education-book_store" data-name="Bookshelves-library-study-education-book store"><path d="m3 50h58v4h-58z" fill="#a78966"/><path d="m8 54h6a0 0 0 0 1 0 0v4a3 3 0 0 1 -3 3 3 3 0 0 1 -3-3v-4a0 0 0 0 1 0 0z" fill="#6a563d"/><path d="m50 54h6a0 0 0 0 1 0 0v4a3 3 0 0 1 -3 3 3 3 0 0 1 -3-3v-4a0 0 0 0 1 0 0z" fill="#6a563d"/><path d="m8 3h10v47h-10z" fill="#499f96"/><path d="m8 9h10v4h-10z" fill="#a2dcb8"/><path d="m18 3h10v47h-10z" fill="#f3c77b"/><path d="m18 39h10v4h-10z" fill="#fae058"/><path d="m38.6 3.089h10v47h-10z" fill="#dd636e" transform="matrix(.906 -.423 .423 .906 -7.152 20.917)"/><path d="m32.049 10.541h10v4h-10z" fill="#e28086" transform="matrix(.906 -.423 .423 .906 -1.829 16.833)"/><path d="m61 49h-7.49l4.98-2.32a1 1 0 0 0 .48-1.33l-15.64-33.53-.19-.42-4.03-8.65a1 1 0 0 0 -1.33-.48l-8.78 4.09v-3.36a1 1 0 0 0 -1-1h-20a1 1 0 0 0 -1 1v46h-4a1 1 0 0 0 -1 1v4a1 1 0 0 0 1 1h4v3a4 4 0 0 0 8 0v-3h34v3a4 4 0 0 0 8 0v-3h4a1 1 0 0 0 1-1v-4a1 1 0 0 0 -1-1zm-4.27-3.71-7.25 3.38-14.79-31.72 7.25-3.38zm-16.14-34.61.51 1.08-7.25 3.38-.85-1.81 7.25-3.39zm-2.87-6.17 1.69 3.62-7.25 3.38-1.69-3.62zm-8.72 4.97 18.43 39.52h-18.43zm-10-5.48h8v34h-8zm0 36h8v2h-8zm0 4h8v5h-8zm-10-40h8v4h-8zm0 6h8v2h-8zm0 4h8v35h-8zm4 44a2 2 0 0 1 -4 0v-3h4zm42 0a2 2 0 0 1 -4 0v-3h4zm5-5h-56v-2h56z"/><path d="m11 18h2v23h-2z"/></g></svg>